<svg xmlns="http://www.w3.org/2000/svg" version="1.1" xmlns:xlink="http://www.w3.org/1999/xlink" width="1000" height="1000"><style>
    #light-icon {
      display: inline;
    }
    #dark-icon {
      display: none;
    }

    @media (prefers-color-scheme: dark) {
      #light-icon {
        display: none;
      }
      #dark-icon {
        display: inline;
      }
    }
  </style><g id="light-icon"><svg xmlns="http://www.w3.org/2000/svg" version="1.1" xmlns:xlink="http://www.w3.org/1999/xlink" width="1000" height="1000"><g><g transform="matrix(1.953125,0,0,1.953125,0,0)"><svg xmlns="http://www.w3.org/2000/svg" version="1.1" xmlns:xlink="http://www.w3.org/1999/xlink" width="512" height="512"><svg width="512" height="512" viewBox="0 0 512 512" fill="none" xmlns="http://www.w3.org/2000/svg">
<rect width="512" height="512" fill="white"></rect>
<path d="M98 331V328L102.2 326.8C106 325.8 108.6 324.1 110 321.7C111.6 319.3 112.5 316.1 112.7 312.1V218.2C112.7 213.8 112 210.6 110.6 208.6C109.2 206.4 106.5 204.9 102.5 204.1L98 202.9V199.9L149.3 182.5L152.3 185.5L154.7 205.9C161.3 199.3 168.8 193.7 177.2 189.1C185.8 184.5 194.7 182.2 203.9 182.2C213.5 182.2 221.2 184.2 227 188.2C232.8 192 237.2 198 240.2 206.2C248 198.8 256.4 193 265.4 188.8C274.6 184.4 283.5 182.2 292.1 182.2C306.3 182.2 316.7 185.6 323.3 192.4C330.1 199.2 333.5 209.9 333.5 224.5V312.4C333.5 320.2 337.1 325.1 344.3 327.1L347.6 328V331H278.3V328L281.3 327.1C285.1 325.9 287.7 324.1 289.1 321.7C290.7 319.3 291.5 316.1 291.5 312.1V220.3C291.5 211.9 290 206.2 287 203.2C284 200 279.2 198.4 272.6 198.4C267.4 198.4 262.3 199.6 257.3 202C252.5 204.2 247.4 207.6 242 212.2C243 215.4 243.6 218.9 243.8 222.7C244.2 226.5 244.4 230.5 244.4 234.7V312.4C244.6 320.2 248.2 325.1 255.2 327.1L257.9 328V331H188.3V328L192.5 326.8C196.3 325.6 198.9 323.9 200.3 321.7C201.9 319.3 202.7 316.1 202.7 312.1V220.6C202.7 212.6 201.2 206.9 198.2 203.5C195.4 200.1 190.5 198.4 183.5 198.4C178.9 198.4 174.3 199.6 169.7 202C165.1 204.2 160.3 207.5 155.3 211.9V312.4C155.3 320.2 158.8 325.1 165.8 327.1L168.5 328V331H98ZM379.428 378.7L377.628 374.5C384.428 370.3 389.528 365.2 392.928 359.2C396.528 353.4 399.028 346.1 400.428 337.3L390.528 333.1C384.728 330.3 380.228 326.7 377.028 322.3C374.028 317.7 372.528 313.1 372.528 308.5C372.528 301.5 374.828 295.7 379.428 291.1C384.028 286.3 390.028 283.9 397.428 283.9C405.028 283.9 411.128 286.6 415.728 292C420.528 297.2 422.928 304.8 422.928 314.8C422.928 325.8 420.628 335.6 416.028 344.2C411.628 353 406.128 360.3 399.528 366.1C392.928 372.1 386.228 376.3 379.428 378.7Z" fill="#111828"></path>
</svg></svg></g></g></svg></g><g id="dark-icon"><svg xmlns="http://www.w3.org/2000/svg" version="1.1" xmlns:xlink="http://www.w3.org/1999/xlink" width="1000" height="1000"><g><g transform="matrix(1.953125,0,0,1.953125,0,0)"><svg xmlns="http://www.w3.org/2000/svg" version="1.1" xmlns:xlink="http://www.w3.org/1999/xlink" width="512" height="512"><svg width="512" height="512" viewBox="0 0 512 512" fill="none" xmlns="http://www.w3.org/2000/svg">
<rect width="512" height="512" fill="#111828"></rect>
<path d="M98 331V328L102.2 326.8C106 325.8 108.6 324.1 110 321.7C111.6 319.3 112.5 316.1 112.7 312.1V218.2C112.7 213.8 112 210.6 110.6 208.6C109.2 206.4 106.5 204.9 102.5 204.1L98 202.9V199.9L149.3 182.5L152.3 185.5L154.7 205.9C161.3 199.3 168.8 193.7 177.2 189.1C185.8 184.5 194.7 182.2 203.9 182.2C213.5 182.2 221.2 184.2 227 188.2C232.8 192 237.2 198 240.2 206.2C248 198.8 256.4 193 265.4 188.8C274.6 184.4 283.5 182.2 292.1 182.2C306.3 182.2 316.7 185.6 323.3 192.4C330.1 199.2 333.5 209.9 333.5 224.5V312.4C333.5 320.2 337.1 325.1 344.3 327.1L347.6 328V331H278.3V328L281.3 327.1C285.1 325.9 287.7 324.1 289.1 321.7C290.7 319.3 291.5 316.1 291.5 312.1V220.3C291.5 211.9 290 206.2 287 203.2C284 200 279.2 198.4 272.6 198.4C267.4 198.4 262.3 199.6 257.3 202C252.5 204.2 247.4 207.6 242 212.2C243 215.4 243.6 218.9 243.8 222.7C244.2 226.5 244.4 230.5 244.4 234.7V312.4C244.6 320.2 248.2 325.1 255.2 327.1L257.9 328V331H188.3V328L192.5 326.8C196.3 325.6 198.9 323.9 200.3 321.7C201.9 319.3 202.7 316.1 202.7 312.1V220.6C202.7 212.6 201.2 206.9 198.2 203.5C195.4 200.1 190.5 198.4 183.5 198.4C178.9 198.4 174.3 199.6 169.7 202C165.1 204.2 160.3 207.5 155.3 211.9V312.4C155.3 320.2 158.8 325.1 165.8 327.1L168.5 328V331H98ZM379.428 378.7L377.628 374.5C384.428 370.3 389.528 365.2 392.928 359.2C396.528 353.4 399.028 346.1 400.428 337.3L390.528 333.1C384.728 330.3 380.228 326.7 377.028 322.3C374.028 317.7 372.528 313.1 372.528 308.5C372.528 301.5 374.828 295.7 379.428 291.1C384.028 286.3 390.028 283.9 397.428 283.9C405.028 283.9 411.128 286.6 415.728 292C420.528 297.2 422.928 304.8 422.928 314.8C422.928 325.8 420.628 335.6 416.028 344.2C411.628 353 406.128 360.3 399.528 366.1C392.928 372.1 386.228 376.3 379.428 378.7Z" fill="white"></path>
</svg></svg></g></g></svg></g></svg>